<?xml version="1.0" encoding="UTF-8"?><svg id="Layer_2" xmlns="http://www.w3.org/2000/svg" xmlns:xlink="http://www.w3.org/1999/xlink" viewBox="0 0 146.93 169.66"><defs><style>.cls-1{stroke:#006838;}.cls-1,.cls-2,.cls-3,.cls-4,.cls-5,.cls-6,.cls-7,.cls-8,.cls-9,.cls-10,.cls-11,.cls-12,.cls-13,.cls-14,.cls-15{stroke-miterlimit:10;}.cls-1,.cls-2,.cls-3,.cls-4,.cls-5,.cls-6,.cls-8,.cls-9,.cls-10,.cls-11,.cls-12,.cls-13,.cls-14,.cls-15{fill:none;}.cls-2{stroke:#00aeef;}.cls-3{stroke:#fbb040;}.cls-3,.cls-4,.cls-9{stroke-width:3px;}.cls-4{stroke:#f15a29;}.cls-16{fill:url(#linear-gradient);}.cls-16,.cls-17{stroke-width:0px;}.cls-17{fill:#000;}.cls-5{stroke-width:2px;}.cls-5,.cls-7,.cls-11,.cls-13,.cls-15{stroke:#231f20;}.cls-6{stroke:#000cef;}.cls-7{fill:#c5d8d4;}.cls-7,.cls-10{stroke-width:4px;}.cls-8{stroke:#da1c5c;}.cls-9{stroke:#ec008c;}.cls-10{stroke:#b4c9cf;}.cls-11{stroke-linecap:round;stroke-width:10px;}.cls-12{stroke:#2bb673;}.cls-13{stroke-width:.5px;}.cls-14{stroke:#c97417;}.cls-15{stroke-width:6px;}</style><linearGradient id="linear-gradient" x1="-106.23" y1="40.08" x2="-61.62" y2="40.08" gradientTransform="translate(125.41 31.89)" gradientUnits="userSpaceOnUse"><stop offset=".31" stop-color="#c5d8d4" stop-opacity="0"/><stop offset=".45" stop-color="rgba(197,216,212,.3)" stop-opacity=".3"/><stop offset=".59" stop-color="rgba(197,216,212,.55)" stop-opacity=".55"/><stop offset=".72" stop-color="rgba(197,216,212,.74)" stop-opacity=".74"/><stop offset=".83" stop-color="rgba(197,216,212,.88)" stop-opacity=".88"/><stop offset=".93" stop-color="rgba(197,216,212,.97)" stop-opacity=".97"/><stop offset="1" stop-color="#c5d8d4"/></linearGradient></defs><g id="Layer_1-2"><polygon class="cls-7" points="144.93 43.57 73.46 2.31 2 43.57 2 126.09 73.46 167.35 144.93 126.09 144.93 43.57"/><line class="cls-13" x1="19.01" y1="52.48" x2="65.6" y2="52.48"/><line class="cls-13" x1="19.01" y1="56.66" x2="65.6" y2="56.66"/><line class="cls-13" x1="19.01" y1="60.92" x2="65.6" y2="60.92"/><line class="cls-12" x1="22.2" y1="52.48" x2="25.49" y2="52.48"/><line class="cls-12" x1="22.2" y1="60.92" x2="25.49" y2="60.92"/><line class="cls-1" x1="22.2" y1="56.66" x2="26.11" y2="56.66"/><line class="cls-2" x1="51.93" y1="52.48" x2="65.09" y2="52.48"/><line class="cls-2" x1="51.93" y1="60.92" x2="65.09" y2="60.92"/><line class="cls-6" x1="56.52" y1="56.66" x2="65.09" y2="56.66"/><line class="cls-8" x1="29.71" y1="52.48" x2="33.95" y2="52.48"/><line class="cls-8" x1="29.73" y1="60.92" x2="36.32" y2="60.92"/><line class="cls-14" x1="40.13" y1="52.48" x2="47.9" y2="52.48"/><line class="cls-14" x1="40.13" y1="60.92" x2="47.9" y2="60.92"/><line class="cls-14" x1="40.13" y1="56.66" x2="43.81" y2="56.66"/><line class="cls-13" x1="18.93" y1="65.06" x2="65.52" y2="65.06"/><line class="cls-13" x1="18.93" y1="69.32" x2="65.52" y2="69.32"/><line class="cls-12" x1="22.12" y1="69.32" x2="27.21" y2="69.32"/><line class="cls-1" x1="22.12" y1="65.06" x2="26.03" y2="65.06"/><line class="cls-2" x1="53.8" y1="69.32" x2="65.01" y2="69.32"/><line class="cls-6" x1="54.99" y1="65.13" x2="65.01" y2="65.06"/><line class="cls-8" x1="29.63" y1="69.32" x2="33.87" y2="69.32"/><line class="cls-14" x1="40.04" y1="69.32" x2="47.82" y2="69.32"/><line class="cls-14" x1="40.04" y1="65.06" x2="45.6" y2="65.06"/><line class="cls-13" x1="18.97" y1="73.13" x2="65.56" y2="73.13"/><line class="cls-13" x1="18.97" y1="77.31" x2="65.56" y2="77.31"/><line class="cls-13" x1="18.97" y1="81.57" x2="65.56" y2="81.57"/><line class="cls-12" x1="22.16" y1="73.13" x2="25.45" y2="73.13"/><line class="cls-12" x1="22.16" y1="81.57" x2="25.45" y2="81.57"/><line class="cls-1" x1="22.16" y1="77.31" x2="26.07" y2="77.31"/><line class="cls-2" x1="51.89" y1="73.13" x2="65.05" y2="73.13"/><line class="cls-2" x1="51.89" y1="81.57" x2="65.05" y2="81.57"/><line class="cls-6" x1="56.48" y1="77.31" x2="65.05" y2="77.31"/><line class="cls-8" x1="29.67" y1="73.13" x2="36.26" y2="73.13"/><line class="cls-8" x1="29.67" y1="81.57" x2="36.26" y2="81.57"/><line class="cls-14" x1="40.09" y1="73.13" x2="47.86" y2="73.13"/><line class="cls-14" x1="40.09" y1="81.57" x2="47.86" y2="81.57"/><line class="cls-14" x1="40.09" y1="77.31" x2="45.63" y2="77.31"/><line class="cls-13" x1="18.89" y1="85.71" x2="65.47" y2="85.71"/><line class="cls-13" x1="18.89" y1="89.97" x2="65.47" y2="89.97"/><line class="cls-12" x1="22.08" y1="89.97" x2="25.37" y2="89.97"/><line class="cls-1" x1="22.08" y1="85.71" x2="25.99" y2="85.71"/><line class="cls-2" x1="51.81" y1="89.97" x2="64.97" y2="89.97"/><line class="cls-6" x1="54.48" y1="85.71" x2="64.97" y2="85.71"/><line class="cls-8" x1="29.59" y1="89.97" x2="33.83" y2="89.97"/><line class="cls-14" x1="40" y1="89.97" x2="47.77" y2="89.97"/><line class="cls-14" x1="40" y1="85.71" x2="46.54" y2="85.71"/><line class="cls-8" x1="29.71" y1="56.6" x2="33.95" y2="56.6"/><rect class="cls-16" x="19.19" y="47.13" width="44.61" height="49.7" transform="translate(113.47 30.48) rotate(90)"/><line class="cls-5" x1="64.97" y1="57.99" x2="109.38" y2="57.99"/><line class="cls-5" x1="64.97" y1="66.84" x2="109.38" y2="66.84"/><line class="cls-5" x1="64.97" y1="75.69" x2="109.38" y2="75.69"/><line class="cls-9" x1="69.95" y1="58.13" x2="75.04" y2="58.13"/><line class="cls-9" x1="69.95" y1="75.84" x2="75.04" y2="75.84"/><line class="cls-9" x1="69.95" y1="66.84" x2="75.04" y2="66.84"/><line class="cls-4" x1="82.67" y1="58.13" x2="96.95" y2="58.13"/><line class="cls-4" x1="82.67" y1="75.84" x2="96.95" y2="75.84"/><line class="cls-3" x1="82.67" y1="66.84" x2="90.49" y2="66.84"/><line class="cls-11" x1="23.69" y1="105.04" x2="54.6" y2="88.89"/><line class="cls-15" x1="59.88" y1="86.26" x2="64.19" y2="83.91"/><path class="cls-17" d="M28.54,115.14h3.63c.44,0,.86.19,1.26.56.4.37.59.83.59,1.36,0,.2-.07.37-.21.51-.14.14-.3.21-.47.21-.24,0-.4-.05-.49-.16-.09-.11-.17-.31-.25-.6-.08-.29-.26-.44-.54-.44h-3.45c-.17,0-.25.05-.25.16,0,.07.03.15.1.23l5.19,6.61c.25.32.37.66.37,1.03,0,.41-.15.78-.45,1.1-.3.31-.64.47-1.01.47h-3.76c-.5,0-.93-.19-1.3-.57s-.55-.8-.55-1.25c0-.52.24-.78.73-.78.19,0,.35.07.48.2s.2.29.2.48c0,.15.05.27.15.37s.23.15.39.15h3.47c.15,0,.22-.06.22-.18,0-.06-.03-.13-.1-.22l-5.18-6.61c-.24-.32-.37-.66-.37-1.03,0-.43.16-.81.47-1.12s.68-.48,1.12-.48Z"/><path class="cls-17" d="M35.86,117.04v-1.88h7.04v1.9c0,.19-.07.36-.21.49s-.3.2-.49.2-.36-.07-.5-.21c-.14-.14-.21-.3-.21-.49v-.51h-1.41v8.92c0,.19-.07.36-.21.49s-.3.2-.49.2c-.2,0-.37-.07-.51-.2s-.21-.3-.21-.49v-8.92h-1.41v.49c0,.19-.07.36-.2.49s-.3.2-.49.2-.36-.07-.49-.2-.2-.3-.2-.49Z"/><path class="cls-17" d="M44.8,125.47v-10.33h4.93c.57,0,1.06.21,1.47.62s.62.91.62,1.49v.8c0,.58-.21,1.08-.62,1.49-.41.41-.9.62-1.48.62h-.89l2.85,4.9c.09.14.13.29.13.43,0,.19-.07.35-.22.49s-.31.2-.49.2c-.28,0-.49-.12-.63-.37l-3.26-5.65h-1.01v5.32c0,.19-.07.36-.21.49-.14.14-.31.2-.5.2s-.36-.07-.49-.2-.2-.3-.2-.49ZM46.2,118.76h3.54c.19,0,.36-.07.49-.2s.2-.3.2-.49v-.81c0-.19-.07-.36-.2-.49s-.3-.2-.49-.2h-3.54v2.21Z"/><path class="cls-17" d="M55.11,125.37v3.09c0,.2-.07.37-.2.51-.14.14-.3.21-.49.21s-.36-.07-.5-.21c-.14-.14-.21-.31-.21-.51v-9.94c0-.19.07-.35.21-.49.14-.14.31-.21.51-.21.19,0,.35.07.49.21.14.14.21.3.21.49v.45c.68-.75,1.34-1.13,2-1.13h.32c.49,0,.95.18,1.36.55l1.16,1c.51.44.76,1,.76,1.68v2.17c0,.69-.27,1.26-.82,1.73l-1.14.98c-.38.34-.85.51-1.43.51h-.31c-.54,0-1-.19-1.38-.56l-.54-.54ZM57.07,125.07h.36c.17,0,.35-.09.55-.26l1.09-.96c.18-.14.27-.34.27-.59v-2.25c0-.22-.1-.42-.31-.59l-1.17-1c-.13-.12-.28-.17-.43-.17h-.41c-.16,0-.36.13-.61.38l-1.04,1.03c-.18.18-.27.39-.27.61v1.78c0,.22.1.43.31.63l1,1c.25.25.47.37.66.37Z"/><path class="cls-17" d="M62.6,125.47v-6.62c0-.19.07-.36.2-.5.14-.14.3-.21.49-.21s.36.07.49.21.2.31.2.51v.87l1.14-.97c.47-.4.93-.6,1.38-.6h1.02c.58,0,1.07.2,1.48.61.41.41.61.9.61,1.48v.37c0,.2-.07.37-.2.51-.14.14-.3.21-.49.21s-.36-.07-.49-.2-.2-.3-.2-.49v-.39c0-.19-.07-.36-.2-.49s-.3-.2-.49-.2h-.9c-.19,0-.41.1-.65.31l-1.98,1.72v3.89c0,.19-.07.36-.21.49s-.3.2-.49.2-.36-.07-.49-.2-.2-.3-.2-.49Z"/><path class="cls-17" d="M78.53,120.68v2.95c0,.63-.29,1.2-.88,1.74-.59.53-1.2.8-1.82.8h-1.64c-.64,0-1.25-.27-1.83-.81-.58-.54-.87-1.11-.87-1.72v-2.95c0-.61.28-1.18.85-1.72.57-.54,1.18-.81,1.85-.81h1.64c.62-.01,1.23.25,1.82.78.59.53.88,1.11.88,1.75ZM72.91,120.73v2.82c0,.25.09.46.27.61l.52.45c.12.1.28.15.49.15h1.62c.24,0,.45-.09.65-.26l.42-.37c.17-.13.26-.32.26-.56v-2.82c0-.28-.08-.48-.26-.62l-.49-.39c-.17-.14-.36-.21-.58-.21h-1.44c-.32,0-.56.08-.73.22l-.47.41c-.17.14-.26.33-.26.56Z"/><path class="cls-17" d="M83.6,119.56v5.92c0,.19-.07.36-.21.49-.14.14-.3.2-.49.2-.2,0-.37-.07-.51-.2-.14-.14-.21-.3-.21-.49v-5.92h-.71c-.19,0-.36-.07-.49-.21s-.2-.3-.2-.49.06-.34.19-.49c.12-.14.29-.21.51-.21h.73v-.54c0-.71.25-1.31.73-1.78.49-.47,1.1-.71,1.83-.71h1.63c.19,0,.36.07.49.21s.2.31.2.51c0,.19-.07.35-.21.49-.14.14-.3.21-.49.21h-1.63c-.33,0-.61.1-.83.3s-.33.46-.33.77v.54h1.39c.19,0,.35.06.49.2s.21.3.21.5-.07.35-.21.49c-.14.14-.3.21-.49.21h-1.41Z"/><path class="cls-17" d="M94.95,126.15h-4.25c-.19,0-.36-.07-.49-.2s-.2-.3-.2-.49.07-.35.2-.49c.14-.14.3-.21.49-.21h1.43v-5.2h-1.41c-.19,0-.36-.07-.49-.21s-.2-.3-.2-.49.07-.36.2-.5c.14-.14.3-.21.49-.21h2.12c.19,0,.36.07.49.21.14.14.2.31.2.5v5.9h1.39c.19,0,.36.07.5.2.14.14.21.3.21.49s-.07.36-.21.49-.3.2-.49.2ZM92.12,114.52h.73c.19,0,.36.07.49.2s.2.3.2.49v.6c0,.19-.07.36-.2.5-.14.14-.3.21-.49.21h-.75c-.2,0-.37-.07-.5-.22-.14-.14-.2-.3-.2-.48l.02-.62c0-.19.07-.36.2-.49s.3-.2.49-.2Z"/><path class="cls-17" d="M103.86,126.17h-4.22c-.19,0-.36-.07-.49-.21-.14-.14-.2-.31-.2-.5s.07-.35.2-.49c.14-.14.3-.21.49-.21h1.39v-8.23h-1.41c-.19,0-.36-.07-.49-.2s-.2-.3-.2-.49.07-.36.2-.49.3-.2.49-.2h2.12c.19,0,.35.07.49.21s.21.3.21.49v8.92h1.41c.19,0,.35.07.49.21.14.14.21.3.21.49s-.07.36-.2.5c-.14.14-.3.21-.49.21Z"/><path class="cls-17" d="M114.17,120.78v1.68c0,.19-.07.35-.21.49-.14.14-.3.21-.49.21h-4.93v.41c0,.24.1.44.31.61l.41.34c.22.17.43.26.63.26h3.59c.19,0,.35.07.49.2s.21.3.21.49-.07.35-.21.49c-.14.14-.3.21-.49.21h-3.68c-.24,0-.5-.05-.77-.15s-.47-.21-.59-.32l-.62-.55c-.19-.15-.36-.37-.49-.65-.13-.28-.2-.53-.2-.76v-3.2c0-.18.07-.43.21-.74.14-.31.32-.55.54-.72l.58-.46c.38-.31.81-.46,1.27-.46h1.96c.49,0,.96.2,1.39.61l.52.5c.38.34.56.84.56,1.51ZM108.55,120.68v1.08h4.23v-.97c0-.26-.08-.46-.24-.6l-.41-.36c-.21-.17-.4-.26-.56-.26h-1.75c-.22,0-.41.08-.59.22l-.41.34c-.18.14-.27.32-.27.54Z"/><path class="cls-17" d="M116.05,125.47v-6.62c0-.19.07-.36.2-.5.14-.14.3-.21.49-.21s.36.07.49.21.2.31.2.51v.87l1.14-.97c.47-.4.93-.6,1.38-.6h1.02c.58,0,1.07.2,1.48.61.41.41.61.9.61,1.48v.37c0,.2-.07.37-.2.51-.14.14-.3.21-.49.21s-.36-.07-.49-.2-.2-.3-.2-.49v-.39c0-.19-.07-.36-.2-.49s-.3-.2-.49-.2h-.9c-.19,0-.41.1-.65.31l-1.98,1.72v3.89c0,.19-.07.36-.21.49s-.3.2-.49.2-.36-.07-.49-.2-.2-.3-.2-.49Z"/><circle class="cls-15" cx="94.19" cy="67.8" r="30.2"/><path class="cls-5" d="M81.99,88.19c1.51,1.23,4.19,2.34,8.8,3.33,4.34.92,8.57-.33,10.44-.8,1.87-.58,4.58-1.68,7.38-3.78,3.45-2.59,5.46-5.53,6.52-7.38"/><polygon class="cls-10" points="139.21 46.87 73.46 8.91 7.71 46.87 7.71 122.79 73.46 160.75 139.21 122.79 139.21 46.87"/></g></svg>